<mxfile host="www.draw.io" modified="2020-02-27T04:30:39.495Z" agent="Mozilla/5.0 (Windows NT 10.0; Win64; x64) AppleWebKit/537.36 (KHTML, like Gecko) Chrome/80.0.3987.122 Safari/537.36" etag="CMudQvqZPkpvnnO4hy4J" version="12.7.8" type="github">
  <diagram id="XIJPUamSOm5252IKuz4y" name="Page-1">
    <mxGraphModel dx="556" dy="425" grid="0" gridSize="10" guides="1" tooltips="1" connect="1" arrows="1" fold="1" page="0" pageScale="1" pageWidth="1654" pageHeight="1169" background="none" math="0" shadow="0">
      <root>
        <mxCell id="0" />
        <mxCell id="1" parent="0" />
        <mxCell id="SbJ9dV-4PSkxlvkEaT_q-26" style="edgeStyle=orthogonalEdgeStyle;rounded=0;orthogonalLoop=1;jettySize=auto;html=1;entryX=0.55;entryY=0.95;entryDx=0;entryDy=0;entryPerimeter=0;fontSize=16;" edge="1" parent="1" source="SbJ9dV-4PSkxlvkEaT_q-2" target="SbJ9dV-4PSkxlvkEaT_q-17">
          <mxGeometry relative="1" as="geometry">
            <Array as="points">
              <mxPoint x="160" y="200" />
              <mxPoint x="545" y="200" />
            </Array>
          </mxGeometry>
        </mxCell>
        <mxCell id="SbJ9dV-4PSkxlvkEaT_q-2" value="&lt;font style=&quot;font-size: 16px;&quot;&gt;Head Design and Production&lt;/font&gt;" style="rounded=1;whiteSpace=wrap;html=1;horizontal=1;direction=south;fillColor=#dae8fc;strokeColor=#6c8ebf;fontSize=16;fontStyle=1" vertex="1" parent="1">
          <mxGeometry x="100" y="260" width="110" height="60" as="geometry" />
        </mxCell>
        <mxCell id="SbJ9dV-4PSkxlvkEaT_q-27" style="edgeStyle=orthogonalEdgeStyle;rounded=0;orthogonalLoop=1;jettySize=auto;html=1;entryX=0.55;entryY=0.95;entryDx=0;entryDy=0;entryPerimeter=0;fontSize=16;" edge="1" parent="1" source="SbJ9dV-4PSkxlvkEaT_q-5" target="SbJ9dV-4PSkxlvkEaT_q-17">
          <mxGeometry relative="1" as="geometry">
            <Array as="points">
              <mxPoint x="285" y="200" />
              <mxPoint x="545" y="200" />
            </Array>
          </mxGeometry>
        </mxCell>
        <mxCell id="SbJ9dV-4PSkxlvkEaT_q-5" value="&lt;font style=&quot;font-size: 16px;&quot;&gt;Pump and Reservoir&lt;/font&gt;" style="rounded=1;whiteSpace=wrap;html=1;fillColor=#d5e8d4;strokeColor=#82b366;fontSize=16;fontStyle=1" vertex="1" parent="1">
          <mxGeometry x="230" y="260" width="110" height="60" as="geometry" />
        </mxCell>
        <mxCell id="SbJ9dV-4PSkxlvkEaT_q-25" style="edgeStyle=orthogonalEdgeStyle;rounded=0;orthogonalLoop=1;jettySize=auto;html=1;entryX=0.55;entryY=0.95;entryDx=0;entryDy=0;entryPerimeter=0;fontSize=16;" edge="1" parent="1" source="SbJ9dV-4PSkxlvkEaT_q-9" target="SbJ9dV-4PSkxlvkEaT_q-17">
          <mxGeometry relative="1" as="geometry" />
        </mxCell>
        <mxCell id="SbJ9dV-4PSkxlvkEaT_q-9" value="&lt;font style=&quot;font-size: 16px;&quot;&gt;Piping and Water Resistance&lt;/font&gt;" style="rounded=1;whiteSpace=wrap;html=1;fillColor=#fff2cc;strokeColor=#d6b656;fontSize=16;fontStyle=1" vertex="1" parent="1">
          <mxGeometry x="490" y="260" width="110" height="60" as="geometry" />
        </mxCell>
        <mxCell id="SbJ9dV-4PSkxlvkEaT_q-29" style="edgeStyle=orthogonalEdgeStyle;rounded=0;orthogonalLoop=1;jettySize=auto;html=1;entryX=0.55;entryY=0.95;entryDx=0;entryDy=0;entryPerimeter=0;fontSize=16;" edge="1" parent="1" source="SbJ9dV-4PSkxlvkEaT_q-11" target="SbJ9dV-4PSkxlvkEaT_q-17">
          <mxGeometry relative="1" as="geometry">
            <Array as="points">
              <mxPoint x="675" y="200" />
              <mxPoint x="545" y="200" />
            </Array>
          </mxGeometry>
        </mxCell>
        <mxCell id="SbJ9dV-4PSkxlvkEaT_q-11" value="&lt;font style=&quot;font-size: 16px;&quot;&gt;Overall Form &amp;amp; Integration&lt;/font&gt;" style="rounded=1;whiteSpace=wrap;html=1;fillColor=#f8cecc;strokeColor=#b85450;fontSize=16;fontStyle=1" vertex="1" parent="1">
          <mxGeometry x="620" y="260" width="110" height="60" as="geometry" />
        </mxCell>
        <mxCell id="SbJ9dV-4PSkxlvkEaT_q-30" style="edgeStyle=orthogonalEdgeStyle;rounded=0;orthogonalLoop=1;jettySize=auto;html=1;entryX=0.55;entryY=0.95;entryDx=0;entryDy=0;entryPerimeter=0;fontSize=16;" edge="1" parent="1" source="SbJ9dV-4PSkxlvkEaT_q-13" target="SbJ9dV-4PSkxlvkEaT_q-17">
          <mxGeometry relative="1" as="geometry">
            <Array as="points">
              <mxPoint x="805" y="200" />
              <mxPoint x="545" y="200" />
            </Array>
          </mxGeometry>
        </mxCell>
        <mxCell id="SbJ9dV-4PSkxlvkEaT_q-13" value="&lt;font style=&quot;font-size: 16px;&quot;&gt;User Interface and Database&lt;/font&gt;" style="rounded=1;whiteSpace=wrap;html=1;fillColor=#e1d5e7;strokeColor=#9673a6;fontSize=16;fontStyle=1" vertex="1" parent="1">
          <mxGeometry x="750" y="260" width="110" height="60" as="geometry" />
        </mxCell>
        <mxCell id="SbJ9dV-4PSkxlvkEaT_q-31" style="edgeStyle=orthogonalEdgeStyle;rounded=0;orthogonalLoop=1;jettySize=auto;html=1;entryX=0.55;entryY=0.95;entryDx=0;entryDy=0;entryPerimeter=0;fontSize=16;" edge="1" parent="1" source="SbJ9dV-4PSkxlvkEaT_q-15" target="SbJ9dV-4PSkxlvkEaT_q-17">
          <mxGeometry relative="1" as="geometry">
            <Array as="points">
              <mxPoint x="935" y="200" />
              <mxPoint x="545" y="200" />
            </Array>
          </mxGeometry>
        </mxCell>
        <mxCell id="SbJ9dV-4PSkxlvkEaT_q-15" value="&lt;font style=&quot;font-size: 16px;&quot;&gt;Control System&lt;/font&gt;" style="rounded=1;whiteSpace=wrap;html=1;fillColor=#b0e3e6;strokeColor=#0e8088;fontSize=16;fontStyle=1" vertex="1" parent="1">
          <mxGeometry x="880" y="260" width="110" height="60" as="geometry" />
        </mxCell>
        <mxCell id="SbJ9dV-4PSkxlvkEaT_q-28" style="edgeStyle=orthogonalEdgeStyle;rounded=0;orthogonalLoop=1;jettySize=auto;html=1;entryX=0.55;entryY=0.95;entryDx=0;entryDy=0;entryPerimeter=0;fontSize=16;" edge="1" parent="1" source="SbJ9dV-4PSkxlvkEaT_q-16" target="SbJ9dV-4PSkxlvkEaT_q-17">
          <mxGeometry relative="1" as="geometry">
            <Array as="points">
              <mxPoint x="415" y="200" />
              <mxPoint x="545" y="200" />
            </Array>
          </mxGeometry>
        </mxCell>
        <mxCell id="SbJ9dV-4PSkxlvkEaT_q-16" value="&lt;font style=&quot;font-size: 16px;&quot;&gt;Power, Sensors and Wiring&lt;/font&gt;" style="rounded=1;whiteSpace=wrap;html=1;fillColor=#ffe6cc;strokeColor=#d79b00;fontSize=16;fontStyle=1" vertex="1" parent="1">
          <mxGeometry x="360" y="260" width="110" height="60" as="geometry" />
        </mxCell>
        <mxCell id="SbJ9dV-4PSkxlvkEaT_q-17" value="&lt;b style=&quot;font-size: 12px ; white-space: normal&quot;&gt;&lt;font style=&quot;font-size: 24px&quot;&gt;Smart Pot&lt;/font&gt;&lt;/b&gt;" style="ellipse;shape=cloud;whiteSpace=wrap;html=1;fontSize=16;fillColor=#bac8d3;strokeColor=#23445d;" vertex="1" parent="1">
          <mxGeometry x="435" y="10" width="200" height="150" as="geometry" />
        </mxCell>
      </root>
    </mxGraphModel>
  </diagram>
</mxfile>
